<?xml version="1.0" standalone="no"?>
<!DOCTYPE svg PUBLIC "-//W3C//DTD SVG 20010904//EN"
 "http://www.w3.org/TR/2001/REC-SVG-20010904/DTD/svg10.dtd">
<svg version="1.0" xmlns="http://www.w3.org/2000/svg"
 width="500.000000pt" height="500.000000pt" viewBox="0 0 500.000000 500.000000"
 preserveAspectRatio="xMidYMid meet">
<metadata>
Created by potrace 1.11, written by Peter Selinger 2001-2013
</metadata>
<g transform="translate(0.000000,500.000000) scale(0.100000,-0.100000)"
fill="#000000" stroke="none">
<path d="M758 3633 c-135 -182 -343 -492 -449 -673 -121 -205 -139 -240 -126
-241 7 0 391 -1 855 -1 l843 -1 40 61 c22 34 64 85 93 115 58 59 158 129 167
119 4 -4 9 -29 12 -57 20 -180 113 -323 256 -392 74 -36 80 -37 196 -39 275
-5 487 67 632 213 69 70 73 72 102 62 17 -6 31 -13 31 -16 0 -3 -15 -44 -34
-92 -19 -47 -37 -97 -40 -111 -3 -14 -12 -56 -20 -95 -16 -74 -24 -120 -25
-145 -1 -13 -26 -15 -158 -15 -144 -1 -263 -8 -319 -19 -12 -2 -38 -7 -58 -10
-117 -19 -286 -85 -364 -143 -87 -65 -148 -148 -187 -255 l-21 -59 -34 38
c-96 111 -98 245 -6 373 l34 47 -28 16 c-43 26 -212 148 -240 174 -14 13 -34
26 -45 29 -11 2 -418 3 -903 2 l-884 -3 -22 -55 c-42 -103 -57 -187 -52 -295
14 -298 160 -491 403 -531 21 -4 722 -8 1558 -9 836 -1 1549 -5 1585 -9 87
-10 175 -32 232 -58 88 -39 80 -70 -67 -268 -63 -84 -113 -155 -112 -157 6 -5
386 135 469 173 361 167 626 404 765 684 43 87 87 200 78 200 -3 0 -1 8 4 18
5 10 12 38 16 62 4 25 8 47 11 51 11 18 15 242 5 289 -29 133 -121 252 -257
330 -76 43 -263 113 -334 124 -19 3 -57 10 -85 15 -100 20 -228 33 -363 35
-80 2 -85 3 -109 31 -124 152 -282 267 -438 320 -132 45 -144 45 -1203 46
l-1007 0 -61 29 c-70 34 -128 88 -185 171 -22 33 -42 59 -44 59 -3 0 -51 -62
-107 -137z m1957 -528 c33 -3 78 -11 100 -17 22 -6 45 -12 50 -14 25 -5 125
-46 129 -52 2 -4 -14 -6 -35 -6 -22 1 -67 -4 -100 -12 -114 -27 -179 -76 -179
-137 0 -37 61 -99 117 -118 l38 -13 -30 -6 c-16 -3 -73 -7 -126 -9 -160 -4
-225 40 -272 184 -23 69 -33 180 -18 190 7 3 42 9 79 12 37 3 68 6 70 8 3 3
104 -3 177 -10z m1419 -205 c332 -41 545 -141 606 -282 20 -47 22 -63 17 -158
-3 -58 -8 -114 -10 -125 -36 -153 -75 -247 -152 -366 -46 -69 -176 -210 -255
-273 -95 -77 -300 -196 -300 -174 0 39 -25 92 -65 136 -51 56 -124 95 -232
122 -72 19 -99 24 -208 36 -33 4 -302 8 -597 8 -295 1 -540 4 -543 8 -4 3 3
24 14 46 68 133 264 224 532 248 129 11 427 5 509 -11 18 -3 20 1 21 43 3 266
40 416 143 570 26 39 76 98 112 131 l66 60 126 -4 c70 -2 167 -9 216 -15z"/>
</g>
</svg>
